<?xml version="1.0" encoding="utf-8"?>
<!-- Generator: Adobe Illustrator 28.0.0, SVG Export Plug-In . SVG Version: 6.00 Build 0)  -->
<svg version="1.1" id="Layer_1" xmlns="http://www.w3.org/2000/svg" xmlns:xlink="http://www.w3.org/1999/xlink" x="0px" y="0px"
	 viewBox="0 0 1312.23 288.28" enable-background="new 0 0 1312.23 288.28" xml:space="preserve">
<g>
	<g>
		<path fill="#304050" d="M316.03,78.83c-1.3-2.11-2.5-4.99-3.61-8.64c-1.11-3.65-1.67-7.49-1.67-11.52
			c0-7.49,1.62-12.86,4.86-16.13c3.24-3.26,7.45-4.9,12.64-4.9h121.13c1.29,2.12,2.5,5,3.61,8.64c1.11,3.65,1.67,7.49,1.67,11.52
			c0,7.49-1.62,12.87-4.86,16.13c-3.24,3.27-7.46,4.9-12.64,4.9h-30.84v133.06c-2.04,0.58-5.24,1.15-9.59,1.73
			c-4.35,0.58-8.66,0.86-12.92,0.86c-4.26,0-8.01-0.34-11.25-1.01c-3.24-0.67-5.97-1.87-8.2-3.6s-3.89-4.13-5-7.2
			c-1.11-3.07-1.67-7.1-1.67-12.1V78.83H316.03z"/>
		<path fill="#304050" d="M597.75,143.05c0,11.91-1.76,22.51-5.28,31.82c-3.52,9.31-8.47,17.14-14.86,23.47s-14.03,11.14-22.92,14.4
			c-8.89,3.26-18.8,4.9-29.73,4.9c-10.93,0-20.84-1.73-29.73-5.18s-16.53-8.4-22.92-14.83c-6.39-6.43-11.35-14.26-14.86-23.47
			c-3.52-9.22-5.28-19.58-5.28-31.1c0-11.33,1.76-21.6,5.28-30.82c3.52-9.22,8.47-17.04,14.86-23.47
			c6.39-6.43,14.03-11.38,22.92-14.83s18.8-5.18,29.73-5.18c10.93,0,20.84,1.78,29.73,5.33c8.89,3.56,16.53,8.55,22.92,14.98
			c6.39,6.44,11.34,14.26,14.86,23.47C595.99,121.74,597.75,131.92,597.75,143.05z M500.51,143.05c0,11.71,2.17,20.69,6.53,26.93
			c4.35,6.24,10.42,9.36,18.2,9.36c7.78,0,13.75-3.17,17.92-9.5c4.17-6.34,6.25-15.26,6.25-26.78s-2.13-20.4-6.39-26.64
			c-4.26-6.24-10.28-9.36-18.06-9.36s-13.8,3.12-18.06,9.36C502.64,122.65,500.51,131.53,500.51,143.05z"/>
		<path fill="#304050" d="M614.98,143.05c0-12.67,1.85-23.66,5.56-32.98c3.7-9.31,8.84-17.04,15.42-23.18
			c6.57-6.14,14.26-10.7,23.06-13.68c8.79-2.97,18.29-4.46,28.48-4.46c3.7,0,7.32,0.34,10.84,1.01c3.52,0.67,6.39,1.49,8.61,2.45
			V25.55c1.85-0.58,4.81-1.2,8.89-1.87c4.07-0.67,8.24-1.01,12.5-1.01c4.07,0,7.73,0.29,10.97,0.86c3.24,0.58,5.97,1.73,8.2,3.46
			s3.89,4.08,5,7.06c1.11,2.98,1.67,6.87,1.67,11.66v136.51c0,9.03-4.08,16.23-12.22,21.6c-5.38,3.65-12.32,6.87-20.84,9.65
			c-8.52,2.78-18.34,4.18-29.45,4.18c-12.04,0-22.83-1.73-32.37-5.18c-9.54-3.46-17.6-8.45-24.17-14.98
			c-6.58-6.53-11.58-14.35-15-23.47C616.69,164.9,614.98,154.57,614.98,143.05z M693.88,107.05c-10,0-17.69,2.98-23.06,8.93
			c-5.37,5.95-8.06,14.98-8.06,27.07c0,11.91,2.5,20.88,7.5,26.93c5,6.05,12.22,9.07,21.67,9.07c3.33,0,6.34-0.53,9.03-1.58
			c2.68-1.05,4.77-2.25,6.25-3.6v-63.36C703.51,108.2,699.07,107.05,693.88,107.05z"/>
		<path fill="#304050" d="M923.37,143.05c0,11.91-1.76,22.51-5.28,31.82c-3.52,9.31-8.47,17.14-14.86,23.47s-14.03,11.14-22.92,14.4
			c-8.89,3.26-18.8,4.9-29.73,4.9c-10.93,0-20.84-1.73-29.73-5.18s-16.53-8.4-22.92-14.83c-6.39-6.43-11.35-14.26-14.87-23.47
			c-3.52-9.22-5.28-19.58-5.28-31.1c0-11.33,1.76-21.6,5.28-30.82c3.52-9.22,8.47-17.04,14.87-23.47
			c6.39-6.43,14.03-11.38,22.92-14.83s18.8-5.18,29.73-5.18c10.93,0,20.84,1.78,29.73,5.33c8.89,3.56,16.53,8.55,22.92,14.98
			c6.39,6.44,11.34,14.26,14.86,23.47C921.61,121.74,923.37,131.92,923.37,143.05z M826.13,143.05c0,11.71,2.18,20.69,6.53,26.93
			c4.35,6.24,10.42,9.36,18.2,9.36c7.78,0,13.75-3.17,17.92-9.5c4.17-6.34,6.25-15.26,6.25-26.78s-2.13-20.4-6.39-26.64
			c-4.26-6.24-10.28-9.36-18.06-9.36s-13.8,3.12-18.06,9.36C828.26,122.65,826.13,131.53,826.13,143.05z"/>
		<path fill="#304050" d="M928.38,78.83c-1.3-2.11-2.5-4.99-3.61-8.64c-1.11-3.65-1.67-7.49-1.67-11.52
			c0-7.49,1.62-12.86,4.86-16.13c3.24-3.26,7.45-4.9,12.64-4.9h121.13c1.29,2.12,2.5,5,3.61,8.64c1.11,3.65,1.67,7.49,1.67,11.52
			c0,7.49-1.62,12.87-4.86,16.13c-3.24,3.27-7.46,4.9-12.64,4.9h-30.84v133.06c-2.04,0.58-5.24,1.15-9.59,1.73
			c-4.35,0.58-8.66,0.86-12.92,0.86c-4.26,0-8.01-0.34-11.25-1.01c-3.24-0.67-5.97-1.87-8.2-3.6s-3.89-4.13-5-7.2
			c-1.11-3.07-1.67-7.1-1.67-12.1V78.83H928.38z"/>
		<path fill="#304050" d="M1084.52,34.19c0-7.29,2.36-13.44,7.08-18.43c4.72-4.99,10.97-7.49,18.75-7.49s14.03,2.5,18.75,7.49
			c4.72,4.99,7.08,11.14,7.08,18.43c0,7.3-2.36,13.44-7.08,18.43c-4.72,5-10.97,7.49-18.75,7.49s-14.03-2.49-18.75-7.49
			C1086.88,47.63,1084.52,41.49,1084.52,34.19z M1133.98,212.75c-2.04,0.38-5.05,0.91-9.03,1.58c-3.98,0.67-8.01,1.01-12.09,1.01
			c-4.08,0-7.73-0.29-10.97-0.86c-3.24-0.58-5.97-1.73-8.2-3.46s-3.94-4.08-5.14-7.06c-1.21-2.97-1.8-6.86-1.8-11.66V75.08
			c2.04-0.38,5.04-0.91,9.03-1.58c3.98-0.67,8.01-1.01,12.09-1.01c4.07,0,7.73,0.29,10.97,0.86c3.24,0.58,5.97,1.73,8.2,3.46
			s3.93,4.08,5.14,7.06c1.2,2.98,1.8,6.87,1.8,11.66V212.75z"/>
		<path fill="#304050" d="M1295.95,187.69c-0.93,9.03-3.47,15.94-7.64,20.74s-10.24,7.2-18.2,7.2c-5.93,0-11.21-1.49-15.84-4.46
			c-4.63-2.97-9.63-8.01-15-15.12l-27.51-35.71v52.42c-2.04,0.38-5.05,0.91-9.03,1.58c-3.99,0.67-8.01,1.01-12.09,1.01
			c-4.08,0-7.74-0.29-10.97-0.86c-3.24-0.58-5.97-1.73-8.2-3.46s-3.94-4.08-5.14-7.06c-1.21-2.97-1.81-6.86-1.81-11.66V25.55
			c2.04-0.58,5.04-1.2,9.03-1.87c3.98-0.67,8.01-1.01,12.09-1.01c4.07,0,7.73,0.29,10.97,0.86c3.24,0.58,5.97,1.73,8.2,3.46
			s3.93,4.08,5.14,7.06c1.2,2.98,1.81,6.87,1.81,11.66v76.03l47.79-50.69c9.63,0,17.37,2.21,23.2,6.62
			c5.83,4.42,8.75,9.99,8.75,16.7c0,2.88-0.46,5.52-1.39,7.92c-0.93,2.4-2.36,4.85-4.31,7.34c-1.95,2.5-4.45,5.14-7.5,7.92
			c-3.06,2.79-6.62,6-10.7,9.65l-16.11,14.4L1295.95,187.69z"/>
	</g>
	<g>
		<path fill="#4CC4DC" d="M232,135.63c0,4.74-0.18,9.49,0.05,14.22c0.22,4.38-1.84,6.93-5.47,9.01
			c-9.31,5.33-18.78,10.47-27.65,16.47c-18.93,12.81-34.61,29-47.98,47.55c-11.38,15.78-19.66,33.01-25.61,51.45
			c-0.27,0.83-0.51,1.67-0.87,2.46c-0.9,1.99-2.26,3.34-4.64,3.29c-2.47-0.05-3.28-1.84-3.81-3.74
			c-2.91-10.46-6.62-20.62-11.7-30.23c-17.11-32.39-41.06-58.39-72.52-77.33c-5.55-3.34-11.18-6.55-16.9-9.56
			c-4.38-2.31-6.59-5.36-6.39-10.59c0.34-8.99,0.07-17.99,0.06-26.99c0-6.68,2.26-8.03,8.19-4.8c21.14,11.53,42.27,23.08,63.4,34.63
			c11.37,6.22,22.76,12.4,34.07,18.72c4.43,2.47,8.54,2.2,12.89-0.2c32.11-17.64,64.25-35.21,96.39-52.79
			c6.79-3.71,8.51-2.66,8.5,5.08c-0.01,4.45,0,8.9,0,13.35C232.02,135.63,232.01,135.63,232,135.63z"/>
		<path fill="#4CC4DC" d="M196.56,83.8c0-5.22,0.03-10.45-0.01-15.67c-0.04-4.59-3.12-6.61-7.16-4.39
			c-13.77,7.56-27.46,15.26-41.17,22.93c-10.88,6.03-21.74,12.11-32.6,18.18c-2.49,1.39-3.71,3.58-3.71,6.44
			c-0.01,10.35-0.11,20.7,0.01,31.05c0.06,4.98,3.25,6.77,7.61,4.36c11.42-6.32,22.8-12.69,34.18-19.06
			c12.95-7.18,25.86-14.42,38.78-21.64c2.77-1.55,4.15-3.78,4.03-7.1c-0.18-5.02-0.05-10.06-0.05-15.09H196.56z"/>
		<path fill="#4CC4DC" d="M164.48,30.89h-0.01c0-5.41,0.05-10.83-0.02-16.24c-0.06-4.51-3.08-6.29-6.97-4.11
			c-13.81,7.74-27.59,15.55-41.42,23.27c-0.04,0.02-0.06,0.04-0.1,0.06c-0.2,0.08-0.41,0.16-0.62,0.26
			c-0.53,0.24-1.03,0.53-1.54,0.81c-8.95,4.98-17.98,9.84-26.83,15c-5.37,3.13-10.23,3.34-15.73,0.02
			c-9.1-5.49-18.48-10.53-27.85-15.56c-4.7-2.52-7.44-0.68-7.44,4.65c-0.01,10.06,0.09,20.13-0.05,30.19
			c-0.05,3.57,1.48,5.87,4.43,7.49c11.1,6.1,22.2,12.19,33.29,18.31c3.69,2.04,7.37,2.13,11.06,0.1
			c11.28-6.18,22.54-12.39,33.8-18.58c0.36-0.2,0.68-0.41,0.98-0.64c0.4-0.17,0.81-0.36,1.24-0.59c2.72-1.46,5.36-3.09,8.05-4.6
			c10.2-5.7,20.4-11.42,30.63-17.07c3.56-1.96,5.4-4.63,5.15-8.88C164.27,40.18,164.48,35.53,164.48,30.89z"/>
	</g>
</g>
<g>
</g>
<g>
</g>
<g>
</g>
<g>
</g>
<g>
</g>
</svg>
